<?xml version="1.0" encoding="UTF-8" standalone="no"?>
<svg
   xmlns:dc="http://purl.org/dc/elements/1.1/"
   xmlns:cc="http://creativecommons.org/ns#"
   xmlns:rdf="http://www.w3.org/1999/02/22-rdf-syntax-ns#"
   xmlns:svg="http://www.w3.org/2000/svg"
   xmlns="http://www.w3.org/2000/svg"
   xmlns:sodipodi="http://sodipodi.sourceforge.net/DTD/sodipodi-0.dtd"
   xmlns:inkscape="http://www.inkscape.org/namespaces/inkscape"
   viewBox="0 0 1952 537"
   height="537.0pt"
   width="1952.0pt"
   version="1.1"
   id="svg1486"
   sodipodi:docname="logo.svg"
   inkscape:version="0.92.3 (2405546, 2018-03-11)">
  <metadata
     id="metadata1492">
    <rdf:RDF>
      <cc:Work
         rdf:about="">
        <dc:format>image/svg+xml</dc:format>
        <dc:type
           rdf:resource="http://purl.org/dc/dcmitype/StillImage" />
        <dc:title></dc:title>
      </cc:Work>
    </rdf:RDF>
  </metadata>
  <defs
     id="defs1490" />
  <sodipodi:namedview
     pagecolor="#ffffff"
     bordercolor="#666666"
     borderopacity="1"
     objecttolerance="10"
     gridtolerance="10"
     guidetolerance="10"
     inkscape:pageopacity="0"
     inkscape:pageshadow="2"
     inkscape:window-width="1920"
     inkscape:window-height="1001"
     id="namedview1488"
     showgrid="false"
     inkscape:zoom="0.70710678"
     inkscape:cx="3413.4032"
     inkscape:cy="121.37323"
     inkscape:window-x="-9"
     inkscape:window-y="-9"
     inkscape:window-maximized="1"
     inkscape:current-layer="svg1486"
     showguides="false" />
  <path
     d="M 0.00 0.00 L 159.36 0.00 C 155.62 5.72 151.98 11.52 148.23 17.23 C 144.32 23.15 139.49 28.53 134.91 33.95 C 123.19 47.58 111.84 60.83 101.80 75.81 C 93.54 88.22 86.17 102.01 82.47 116.53 C 78.75 131.41 78.56 147.74 78.78 163.00 C 80.08 196.35 84.90 230.02 91.20 262.77 C 93.09 271.76 94.30 280.26 98.37 288.62 C 102.85 298.26 109.72 305.48 117.12 312.90 C 118.69 314.71 121.44 317.33 119.64 319.80 C 118.03 319.85 116.66 319.27 115.19 318.71 C 108.37 315.95 101.63 312.99 94.84 310.17 C 86.48 306.73 77.78 304.10 69.03 301.88 C 67.24 301.49 64.69 300.93 63.03 301.92 C 61.19 303.41 61.50 305.34 61.92 307.43 C 62.66 310.25 64.06 312.94 65.58 315.42 C 70.39 323.00 76.79 329.59 83.63 335.35 C 92.86 342.82 103.60 349.05 115.54 350.66 C 134.68 376.93 152.91 405.12 166.13 434.87 C 178.20 461.11 185.83 488.20 198.75 514.19 C 201.01 519.01 203.77 523.55 206.03 528.37 C 139.70 528.52 73.33 528.36 7.00 528.45 C 4.42 528.30 2.06 529.11 0.00 527.21 L 0.00 0.00 Z"
     fill="#8f8b8c"
     id="path1460" />
  <path
     d="M 168.34 0.00 L 329.20 0.00 C 329.30 175.95 329.22 352.39 329.24 528.39 C 299.11 528.47 268.99 528.41 238.87 528.42 C 234.55 522.20 230.74 515.61 226.89 509.09 C 210.25 480.03 195.14 449.84 180.39 419.78 C 168.14 394.33 156.05 368.56 145.76 342.25 C 143.00 334.72 139.96 326.94 138.60 319.02 C 137.78 315.11 140.80 312.74 142.53 309.53 C 154.40 290.06 163.04 267.94 170.67 246.50 C 177.13 227.75 182.77 208.72 187.77 189.53 C 194.91 160.76 201.55 130.63 203.29 101.00 C 203.70 93.13 202.81 85.17 201.19 77.47 C 199.31 77.47 198.59 78.08 197.51 79.49 C 194.18 83.97 191.90 89.46 189.48 94.47 C 185.36 102.99 181.90 111.95 177.14 120.13 C 176.08 121.60 175.22 123.77 173.14 123.85 C 171.94 122.41 172.28 119.76 172.15 118.00 C 172.27 97.65 173.28 77.37 172.63 57.00 C 172.16 37.98 170.07 18.93 168.34 0.00 Z"
     fill="#bd107b"
     id="path1464" />
  <path
     d="M 1858.99 181.29 C 1865.66 181.31 1872.33 181.34 1879.00 181.28 C 1889.29 181.77 1899.51 183.14 1909.52 185.58 C 1919.37 188.43 1928.56 191.85 1936.48 198.60 C 1937.87 199.42 1936.92 201.64 1936.64 202.86 C 1932.72 215.22 1929.18 227.72 1925.21 240.06 C 1922.86 239.05 1920.99 237.40 1918.78 236.14 C 1908.97 230.58 1898.35 226.22 1887.36 223.60 C 1880.99 221.90 1874.62 220.85 1868.00 221.22 C 1858.98 220.67 1850.28 223.09 1842.48 227.54 C 1830.23 235.31 1823.42 248.73 1822.14 262.96 C 1822.19 268.04 1821.86 273.21 1822.48 278.25 C 1822.82 283.78 1824.82 289.22 1826.55 294.44 C 1829.05 299.25 1831.43 304.10 1835.16 307.89 C 1839.19 313.21 1844.49 316.42 1849.96 320.06 C 1857.65 324.81 1865.52 329.28 1873.52 333.51 C 1888.97 342.13 1905.47 349.32 1918.99 360.98 C 1924.72 365.05 1928.86 370.35 1933.34 375.65 C 1936.38 380.50 1940.04 384.55 1942.01 390.00 C 1945.51 396.73 1947.06 403.96 1949.25 411.15 C 1950.51 417.57 1951.18 424.15 1952.00 430.63 L 1952.00 454.30 C 1950.71 464.01 1948.62 473.45 1944.35 482.32 C 1939.96 491.29 1934.36 500.17 1927.02 507.02 C 1911.42 524.26 1887.68 534.12 1864.76 535.85 L 1864.03 536.37 C 1855.04 536.24 1845.88 536.98 1837.00 535.70 C 1834.03 535.74 1831.20 535.66 1828.30 534.94 C 1818.53 533.34 1808.60 530.69 1799.66 526.39 C 1792.57 523.44 1786.58 519.34 1780.23 515.19 C 1785.46 501.00 1790.45 486.54 1795.55 472.30 C 1797.20 471.99 1798.63 474.29 1799.94 475.10 C 1811.62 483.37 1825.16 488.91 1838.97 492.45 C 1844.06 493.49 1848.76 494.75 1854.00 494.48 C 1860.33 494.53 1866.39 494.69 1872.51 492.71 C 1880.16 491.19 1887.58 487.47 1893.27 482.12 C 1896.93 479.63 1898.88 476.10 1901.85 472.86 C 1907.50 464.82 1910.48 454.78 1910.80 445.01 C 1910.63 439.93 1911.23 434.67 1910.09 429.82 C 1909.30 424.12 1907.20 418.98 1905.13 413.52 C 1900.89 403.41 1893.01 396.86 1884.47 390.49 C 1874.37 383.62 1863.81 377.48 1852.82 372.15 C 1846.49 368.28 1839.55 365.68 1833.32 361.67 C 1829.15 359.23 1824.85 356.89 1820.82 354.21 C 1817.93 352.11 1815.29 349.71 1812.34 347.70 C 1807.98 344.66 1804.64 340.80 1801.24 336.78 C 1798.20 333.93 1796.35 330.38 1793.98 327.03 C 1791.49 323.64 1790.16 319.55 1788.14 315.84 C 1782.21 301.39 1779.60 285.60 1780.13 270.00 C 1779.10 247.70 1787.14 224.77 1802.29 208.31 C 1816.47 191.99 1837.55 182.60 1858.99 181.29 Z"
     fill="#016871"
     id="path1466" />
  <path
     style="fill:#016871;stroke-width:1.33333337"
     d="M 676.67578 242.37695 C 674.81906 242.41336 672.99258 242.57258 671.26758 242.89258 C 652.80091 295.39925 633.70607 347.92039 615.05273 400.40039 C 594.74607 456.96039 574.58758 513.62716 554.26758 570.17383 C 538.10758 615.81383 521.43945 661.37273 505.43945 707.05273 C 526.09279 707.17273 546.74706 706.97315 567.40039 707.14648 C 575.72039 681.57315 583.59935 655.70734 591.66602 630.02734 C 593.99935 623.86734 595.14643 617.18716 597.75977 611.17383 C 599.94643 610.08049 602.93398 610.53245 605.33398 610.42578 C 653.18732 610.50578 701.06659 610.4268 748.91992 610.4668 C 758.49326 642.60013 767.54667 674.92042 777 707.09375 C 797.76 707.04042 818.5193 707.15906 839.2793 707.03906 C 830.14596 678.7324 820.44042 650.49391 811.09375 622.25391 C 801.26708 590.93391 790.47982 559.86703 780.14648 528.70703 C 769.53315 494.54703 757.39927 460.82576 746.58594 426.73242 C 735.62594 392.65242 723.6406 358.83969 712.94727 324.67969 C 703.94727 297.47969 694.54685 270.34641 685.85352 243.06641 C 682.94518 242.59974 679.77031 242.31628 676.67578 242.37695 z M 676.3457 363.50586 C 695.5857 430.25253 714.20039 497.75987 733.40039 564.5332 C 693.20039 564.58654 652.95977 564.6938 612.75977 564.48047 C 617.11977 549.2138 622.33393 534.18633 626.94727 518.98633 C 643.14727 468.26633 659.92042 414.42607 676.09375 364.05273 L 676.3457 363.50586 z "
     transform="scale(0.74999999)"
     id="path1468" />
  <path
     style="fill:#016871;stroke-width:1.33333337"
     d="M 1998.9922 247.09961 C 1998.4429 247.08521 1997.8907 247.08742 1997.334 247.10742 C 1980.9073 247.30742 1964.3863 246.9063 1947.9863 247.29297 C 1937.9063 249.21297 1928.0803 247.32029 1918.0137 248.62695 C 1909.8937 249.54695 1901.4391 248.02654 1893.4258 249.5332 C 1890.0124 250.10654 1886.3202 249.83951 1882.8535 249.82617 C 1882.8268 402.23951 1882.8268 554.68041 1882.8535 707.09375 C 1916.1202 707.09375 1949.3993 707.03914 1982.666 707.11914 C 2003.2927 705.21247 2023.0524 703.0394 2042.7324 696.05273 C 2068.8924 688.09273 2093.133 673.14701 2111.6797 653.01367 C 2118.413 647.29367 2122.4008 639.87974 2127.8008 633.06641 C 2132.5608 626.90641 2135.4794 619.5724 2139.7461 613.03906 C 2143.6261 605.22573 2146.8006 596.98633 2150.2539 588.98633 C 2152.0139 582.42633 2154.3324 576.09396 2156.4258 569.64062 C 2158.5191 561.58729 2160.1192 553.41271 2162.1992 545.35938 C 2163.9992 533.74604 2165.8806 522.34635 2167.2539 510.67969 C 2167.4139 502.22635 2168.7867 493.78732 2169.0801 485.33398 C 2169.0134 470.66732 2169.0134 456.00065 2169.0801 441.33398 C 2167.0934 410.28065 2161.5606 379.85305 2148.6406 351.37305 C 2146.4673 347.19971 2144.3462 343.04003 2142.5195 338.69336 C 2135.7729 326.29336 2127.654 314.86693 2118.7207 303.93359 C 2104.4674 288.61359 2089.0009 275.07982 2069.8809 266.14648 C 2051.6009 256.29315 2030.9727 250.60013 2010.3594 248.4668 C 2006.521 248.05846 2002.8369 247.20042 1998.9922 247.09961 z M 1982.9727 303.02344 C 1986.4229 303.02594 1989.881 303.0494 1993.3477 303.05273 C 1998.3477 303.14607 2003.0409 304.06737 2007.9609 304.7207 C 2035.5743 308.7207 2061.4143 321.67932 2078.6543 343.97266 C 2097.3476 367.93266 2105.5594 398.25367 2108.7461 428.01367 C 2111.0928 444.46701 2110.1607 460.78732 2110.334 477.33398 C 2110.574 487.09398 2109.721 496.91995 2108.6543 506.61328 C 2105.8676 535.02662 2098.8409 562.74596 2085.8809 588.2793 C 2075.1742 608.06596 2059.3075 627.09255 2039.4941 638.19922 C 2026.4808 645.61255 2012.121 649.36016 1997.3477 651.16016 C 1985.801 651.20016 1974.226 651.11922 1962.666 651.19922 C 1954.6793 650.43922 1946.7462 649.66698 1938.8262 648.32031 C 1938.8262 534.17364 1938.7865 420.02753 1938.8398 305.88086 C 1943.2398 305.45419 1947.56 304.75935 1952 304.66602 C 1962.33 303.19602 1972.622 303.01594 1982.9727 303.02344 z "
     transform="scale(0.74999999)"
     id="path1470" />
  <path
     d="M 1068.68 186.72 C 1074.92 186.56 1081.20 186.73 1087.45 186.67 C 1088.40 190.01 1088.81 193.43 1089.48 196.82 C 1109.21 305.24 1128.80 413.70 1148.55 522.12 C 1149.10 524.91 1149.81 527.57 1149.60 530.45 C 1136.35 530.13 1123.08 530.42 1109.82 530.30 C 1109.70 525.91 1108.44 521.67 1107.90 517.29 C 1101.43 478.59 1095.26 439.63 1088.69 400.95 C 1086.35 384.66 1083.14 368.48 1080.80 352.19 C 1078.48 338.31 1076.14 324.43 1073.89 310.54 C 1067.81 329.52 1062.55 348.77 1056.71 367.82 C 1040.26 423.52 1023.67 479.18 1007.25 534.89 C 1003.75 535.27 1000.29 535.24 996.78 534.97 C 981.80 485.88 966.82 436.79 951.81 387.71 C 943.93 362.07 936.19 336.11 928.11 310.55 C 916.20 383.55 904.37 457.27 892.63 530.33 C 879.32 530.29 866.01 530.34 852.70 530.30 C 871.26 418.14 890.20 306.96 908.78 194.81 C 909.38 192.11 909.79 189.45 909.88 186.68 C 916.28 186.71 922.68 186.55 929.07 186.76 C 953.27 270.06 977.68 354.60 1001.99 437.72 C 1021.57 364.77 1041.09 290.74 1060.61 217.67 C 1063.23 207.34 1066.30 197.10 1068.68 186.72 Z"
     fill="#016871"
     id="path1472" />
  <path
     d="M 661.77 186.68 C 675.76 186.66 689.76 186.65 703.75 186.68 C 703.75 287.24 703.73 387.80 703.76 488.35 C 749.85 488.40 795.94 488.38 842.03 488.36 C 842.29 499.90 842.05 511.46 842.15 523.00 C 842.20 525.46 842.12 527.88 841.92 530.33 C 781.86 530.28 721.80 530.35 661.75 530.29 C 661.77 415.76 661.73 301.22 661.77 186.68 Z"
     fill="#016871"
     id="path1474" />
  <path
     d="M 1182.27 186.72 C 1242.58 186.60 1302.92 186.68 1363.23 186.68 C 1363.30 200.62 1363.19 214.57 1363.29 228.50 C 1316.99 228.78 1270.60 228.48 1224.29 228.66 C 1224.32 260.66 1224.31 292.66 1224.29 324.66 C 1257.28 324.68 1290.27 324.61 1323.26 324.69 C 1323.29 337.97 1323.25 351.24 1323.28 364.52 C 1290.28 364.68 1257.27 364.49 1224.27 364.61 C 1224.34 405.85 1224.31 447.10 1224.28 488.34 C 1267.18 488.43 1310.09 488.34 1353.00 488.38 C 1356.46 488.38 1359.90 488.28 1363.35 488.53 C 1363.11 502.45 1363.33 516.38 1363.24 530.30 C 1302.92 530.30 1242.56 530.38 1182.24 530.26 C 1182.34 415.77 1182.28 301.21 1182.27 186.72 Z"
     fill="#016871"
     id="path1476" />
  <path
     d="M 1681.72 186.69 C 1695.73 186.66 1709.74 186.63 1723.74 186.71 C 1723.74 301.24 1723.75 415.77 1723.73 530.31 C 1709.74 530.33 1695.74 530.30 1681.74 530.31 C 1681.70 415.77 1681.74 301.23 1681.72 186.69 Z"
     fill="#016871"
     id="path1478" />
</svg>
